<svg xmlns="http://www.w3.org/2000/svg" version="1.1" xmlns:xlink="http://www.w3.org/1999/xlink" xmlns:svgjs="http://svgjs.com/svgjs" width="1000" height="1000"><rect width="1000" height="1000" rx="200" ry="200" fill="#ffffff"></rect><g transform="matrix(1,0,0,1,0,0)"><svg xmlns="http://www.w3.org/2000/svg" version="1.1" xmlns:xlink="http://www.w3.org/1999/xlink" xmlns:svgjs="http://svgjs.com/svgjs" width="150px" height="131.423px"><svg version="1.1" id="Layer_1" xmlns="http://www.w3.org/2000/svg" xmlns:xlink="http://www.w3.org/1999/xlink" x="0px" y="0px" width="150px" height="131.423px" viewBox="0 2.295 150 131.423" enable-background="new 0 2.295 150 131.423" xml:space="preserve">
<path d="M145.032,17.013L125.518,5.611c-3.018-1.763-6.579-2.166-9.77-1.105c-0.116,0.039-0.229,0.083-0.344,0.125
	c-0.023,0.009-0.047,0.017-0.069,0.025c-3.002,1.129-5.448,3.505-6.751,6.583L95.44,42.3L67.097,6.304
	c-3.493-4.437-6.583-4.398-8.562-3.586c-1.978,0.813-4.202,2.96-3.565,8.57l4.618,40.685L25.121,29.84
	c-4.832-3.103-7.683-2.021-9.224-0.568c-1.541,1.454-2.786,4.236,0.031,9.241L40.57,82.299L6.791,91.35
	c-5.554,1.488-6.626,4.695-6.771,6.474c-0.145,1.779,0.394,5.117,5.634,7.485L63.4,131.405c2.157,0.975,4.871,1.658,7.696,2.019
	c0.224,0.045,0.452,0.071,0.681,0.081c1.298,0.141,2.612,0.214,3.901,0.214c2.398,0,4.706-0.249,6.652-0.771l55.103-14.766
	c6.875-1.842,10.97-8.934,9.128-15.809l-17.939-66.948l14.459-3.875c5.615-1.504,6.673-5.031,6.867-6.478
	C150.142,23.627,150.052,19.946,145.032,17.013z M115.014,18.599l3.98,14.855c0,0,0,0.001,0,0.002s0.001,0.001,0.001,0.001
	l18.339,68.44l-45.27-29.068l8.555-20.216c0.004-0.008,0.008-0.017,0.011-0.025L115.014,18.599z M64.486,17.196l27.043,34.345
	l-6.969,16.467L69.129,58.1L64.486,17.196z M45.021,90.206l17.545,31.178L12.725,98.86L45.021,90.206z M80.055,124.458
	c-1.491,0.4-3.422,0.543-5.41,0.467L28.082,42.186l105.7,67.876L80.055,124.458z M126.347,26.936l-3.386-12.639l15.895,9.287
	L126.347,26.936z"></path>
</svg></svg></g></svg>